<svg xmlns="http://www.w3.org/2000/svg" width="535" height="535" viewBox="0 0 535 535">
<rect width="535" height="535" rx="80" fill="#ffffff"/>
<g transform="translate(0,45)">
<path d="M 531.77 931.11 C517.73,938.17 514.92,937.82 503.96,927.67 C500.21,924.19 494.43,919.91 491.12,918.14 C483.21,913.93 466.38,907.64 455.88,904.99 C450.32,903.58 446.23,901.86 443.71,899.86 L 439.92 896.84 L 430.56 901.39 C414.31,909.30 411.94,909.18 400.78,899.90 C392.44,892.96 383.26,888.88 361.64,882.52 C355.35,880.67 348.84,878.45 347.19,877.60 C338.46,873.09 336.48,862.08 343.05,854.59 C350.90,845.66 367.42,842.09 426.99,836.48 C436.06,835.62 443.80,834.60 444.20,834.20 C445.33,833.07 448.94,809.58 449.62,799.00 L 450.22 789.50 L 437.86 786.12 C396.37,774.78 353.43,753.21 322.00,727.90 C310.49,718.63 290.63,698.34 282.70,687.75 C253.22,648.40 238.87,607.22 238.89,561.96 C238.90,542.18 240.63,529.16 246.03,508.25 C253.45,479.54 264.05,456.80 287.19,419.96 C314.63,376.29 322.87,360.24 328.56,339.35 C333.75,320.32 335.19,305.66 332.92,295.05 C332.32,292.27 331.75,290.00 331.65,290.00 C331.54,290.00 324.44,287.15 315.87,283.67 C299.57,277.04 291.21,272.69 281.99,266.02 L 276.48 262.03 L 268.49 262.94 C253.17,264.68 227.46,265.19 209.87,264.11 C174.81,261.95 156.23,256.15 148.44,244.92 C146.09,241.52 145.63,239.83 145.64,234.68 C145.67,221.53 153.43,214.57 176.50,207.00 C200.80,199.02 219.06,188.51 235.03,173.31 C243.36,165.38 244.47,163.85 249.96,152.62 C257.95,136.30 264.82,126.16 274.15,116.91 C286.47,104.71 304.24,94.16 321.83,88.61 C346.41,80.85 377.23,81.05 401.50,89.12 C438.54,101.43 465.91,128.17 481.33,167.10 C487.56,182.84 491.49,206.02 490.85,223.32 L 490.50 232.76 L 499.94 223.73 C510.56,213.58 526.10,201.09 549.72,183.73 C590.23,153.95 622.87,122.45 650.43,86.50 C664.35,68.35 670.27,63.57 680.32,62.39 C700.01,60.08 712.50,75.50 713.73,103.64 C714.48,120.77 710.61,144.06 704.52,159.12 L 702.25 164.73 L 707.59 166.95 C716.18,170.51 723.19,180.41 724.79,191.23 C725.45,195.67 725.87,196.45 727.49,196.16 C730.60,195.61 760.45,181.40 774.50,173.78 C803.70,157.95 834.19,136.84 861.49,113.55 C869.90,106.37 879.40,98.93 882.60,97.00 C888.05,93.72 888.97,93.50 896.96,93.51 C906.60,93.53 911.10,95.27 916.64,101.16 C923.29,108.22 926.00,117.34 926.00,132.64 C926.00,159.74 912.45,193.68 889.51,224.09 L 886.05 228.68 L 892.74 232.09 C897.54,234.54 900.50,236.91 903.22,240.50 C908.10,246.92 909.40,251.50 909.30,262.00 C909.09,284.57 891.57,312.77 862.94,336.62 L 856.11 342.31 L 860.02 346.76 C865.97,353.51 868.29,360.68 867.78,370.73 C867.40,378.10 866.87,379.95 862.73,388.23 C852.74,408.24 834.19,424.87 806.25,438.87 C799.51,442.25 794.00,445.41 794.00,445.89 C794.00,446.36 794.73,448.50 795.63,450.63 C796.64,453.06 797.25,457.36 797.26,462.17 C797.26,467.35 797.63,469.73 798.38,469.50 C808.07,466.56 821.83,461.82 831.00,458.26 C857.91,447.81 867.21,445.63 874.63,448.01 C888.02,452.30 892.67,465.01 888.43,485.79 C883.84,508.32 868.67,540.43 852.04,562.87 C844.77,572.67 844.77,572.66 837.67,594.63 C825.11,633.47 806.79,668.37 783.39,698.00 C774.02,709.87 749.44,734.04 737.49,743.13 C725.31,752.40 710.33,762.20 698.97,768.31 C677.94,779.65 643.72,792.13 619.00,797.50 C612.12,798.99 606.40,800.30 606.28,800.41 C605.83,800.82 602.98,828.82 602.10,841.50 C601.41,851.42 601.52,856.51 602.58,863.00 C605.17,878.93 603.85,884.34 595.40,892.44 C586.98,900.51 559.86,916.99 531.77,931.11 ZM 568.76 785.55 C571.31,786.53 575.24,786.88 581.12,786.63 C588.29,786.33 590.62,785.79 594.98,783.41 C601.02,780.12 605.26,775.30 610.49,765.75 C616.51,754.75 621.56,752.32 626.41,758.08 C629.63,761.91 629.65,763.79 626.50,770.00 C625.12,772.71 624.00,775.14 624.00,775.39 C624.00,776.24 641.83,771.10 651.72,767.39 C697.04,750.43 734.85,724.59 762.64,691.58 C773.42,678.78 790.11,653.87 797.87,639.00 C807.70,620.19 821.50,584.08 823.49,572.00 C824.42,566.35 825.17,564.92 831.11,557.40 C837.44,549.40 849.54,529.87 855.38,518.25 C864.63,499.82 870.00,483.05 870.00,472.58 C870.00,467.01 869.99,467.00 866.92,467.00 C865.22,467.00 860.38,468.39 856.17,470.10 C831.18,480.19 802.45,489.48 788.62,491.94 C783.94,492.77 781.69,493.87 777.62,497.35 C774.80,499.75 769.82,503.42 766.55,505.51 C759.92,509.75 743.99,517.50 739.75,518.54 C737.29,519.14 737.00,519.67 737.00,523.41 C737.00,541.23 705.95,565.68 667.88,577.84 C630.60,589.74 584.33,589.59 547.24,577.44 C527.64,571.02 520.00,566.07 520.00,559.79 C520.00,556.04 524.83,551.00 528.41,551.00 C529.83,551.00 535.66,552.78 541.38,554.95 C554.48,559.94 569.49,563.76 583.00,565.56 C595.43,567.22 619.12,567.42 631.03,565.97 C653.09,563.28 680.27,553.35 697.45,541.69 C704.31,537.04 714.00,527.95 714.00,526.18 C714.00,525.26 710.68,525.13 700.25,525.62 C678.24,526.65 644.48,522.89 635.89,518.44 C630.28,515.54 629.05,507.68 633.63,504.07 C636.90,501.50 641.63,501.42 654.76,503.68 C669.17,506.16 705.51,506.16 716.77,503.68 C728.17,501.17 740.60,496.85 748.83,492.52 C763.58,484.77 775.70,471.85 776.72,462.77 C777.14,459.05 776.83,458.10 774.36,455.64 C773.61,454.88 773.11,454.30 772.49,453.90 C770.62,452.69 767.66,453.17 753.03,455.56 C751.92,455.74 750.75,455.93 749.50,456.13 C737.70,458.05 731.57,458.41 710.50,458.45 C688.46,458.49 685.12,458.29 682.28,456.74 C676.54,453.60 675.10,446.81 679.29,442.62 C681.51,440.40 682.33,440.31 705.04,439.70 C745.63,438.62 767.99,434.06 794.87,421.39 C810.34,414.09 821.87,406.23 832.02,396.05 C849.15,378.86 852.01,366.07 840.65,357.58 C839.93,357.05 839.48,356.61 838.94,356.36 C837.28,355.60 834.80,356.62 821.35,362.15 C820.01,362.70 818.57,363.29 817.00,363.93 C799.38,371.16 779.51,377.44 758.01,382.58 C729.18,389.46 719.88,389.54 716.45,382.91 C712.76,375.77 716.84,370.87 728.05,369.01 C770.80,361.90 809.99,347.72 837.50,329.40 C863.07,312.38 884.54,286.24 888.51,267.30 C890.84,256.20 887.81,249.99 879.30,248.40 C873.99,247.40 868.53,249.51 856.95,257.03 C830.81,273.98 810.84,284.75 787.00,294.75 C766.01,303.55 748.16,309.14 743.75,308.29 C739.18,307.42 736.00,303.65 736.00,299.12 C736.00,294.14 738.48,291.99 747.80,288.92 C775.23,279.86 808.38,263.85 831.96,248.26 C844.07,240.25 848.85,236.29 860.55,224.57 C875.76,209.33 882.22,200.57 891.27,182.92 C901.29,163.36 906.02,146.92 905.98,131.79 C905.95,122.31 903.64,115.70 899.72,113.92 C895.99,112.22 891.89,114.60 878.00,126.51 C826.48,170.69 778.57,198.71 703.62,228.47 C653.25,248.47 636.19,256.86 616.96,271.07 C606.31,278.94 591.50,293.82 582.69,305.50 C574.49,316.37 562.41,340.38 551.49,367.50 C534.01,410.93 516.23,440.81 493.65,464.70 C480.28,478.85 475.98,481.13 470.63,476.93 C467.13,474.17 467.06,468.84 470.46,463.84 L 472.93 460.21 L 469.27 459.52 C455.89,457.01 445.88,445.55 441.31,427.50 C438.80,417.56 438.84,385.61 441.39,371.50 C443.69,358.72 451.37,326.42 458.49,299.50 C464.74,275.88 468.33,257.68 469.92,241.58 C474.45,195.75 463.26,160.28 435.50,132.49 C422.50,119.47 407.92,111.05 389.50,105.92 C377.59,102.61 351.12,102.05 338.44,104.83 C309.75,111.15 286.36,127.33 272.93,150.17 C270.77,153.85 269.00,157.07 269.00,157.33 C269.00,157.60 273.39,158.59 278.75,159.55 C289.26,161.41 295.33,163.87 296.97,166.94 C297.53,168.00 298.01,174.64 298.02,181.68 C298.04,199.21 299.63,205.98 306.62,218.20 C313.25,229.82 313.73,233.37 309.62,240.39 C308.16,242.88 304.75,246.83 302.04,249.16 L 297.12 253.40 L 300.31 255.34 C307.90,259.97 321.31,266.09 331.50,269.60 C339.19,272.24 343.43,274.29 345.59,276.44 C357.93,288.66 356.53,324.30 342.32,360.00 C334.07,380.72 327.31,393.34 306.94,426.00 C284.33,462.27 274.74,481.58 267.59,505.24 C260.45,528.87 259.57,534.93 259.55,561.00 C259.53,582.84 259.72,585.39 262.24,597.10 C268.17,624.67 280.76,651.81 298.73,675.80 C305.79,685.22 323.78,703.41 334.54,711.99 C375.90,745.00 435.19,769.44 494.81,778.06 C510.44,780.32 536.02,781.77 535.97,780.40 C535.95,779.91 534.83,777.70 533.47,775.50 C530.46,770.61 530.37,768.07 533.07,764.63 C534.65,762.63 536.04,762.00 538.86,762.00 C541.94,762.00 543.29,762.74 546.64,766.25 C548.87,768.59 551.97,772.22 553.52,774.32 C556.70,778.63 563.19,783.41 568.76,785.55 ZM 466.75 436.09 C470.26,439.17 470.51,439.22 478.42,438.79 C483.39,438.52 487.78,437.68 489.83,436.61 C497.62,432.53 518.80,394.45 534.39,356.50 C553.35,310.31 564.52,292.18 587.73,269.91 C610.96,247.61 633.42,234.55 680.50,215.96 C692.05,211.40 702.06,206.98 702.75,206.14 C704.50,204.01 704.34,192.56 702.51,189.02 C700.84,185.79 698.02,184.53 694.48,185.41 C693.18,185.74 688.84,189.86 684.83,194.56 C674.09,207.17 668.63,209.72 663.45,204.55 C659.19,200.28 660.15,196.65 669.02,183.48 C679.36,168.14 687.45,149.19 691.12,131.73 C693.68,119.58 694.25,98.06 692.19,91.21 C690.44,85.38 686.05,80.53 683.31,81.40 C680.55,82.28 674.11,89.32 659.00,107.97 C627.45,146.92 601.35,171.39 556.00,204.55 C533.44,221.04 519.64,232.50 510.00,242.74 C499.43,253.97 489.30,268.61 485.60,278.00 C480.96,289.79 469.21,336.33 466.97,351.80 C465.80,359.89 463.48,373.92 461.82,383.00 C459.21,397.26 458.87,401.13 459.28,411.50 C459.84,425.74 461.61,431.58 466.75,436.09 ZM 196.50 243.94 C209.94,244.98 229.50,244.36 245.38,242.38 C259.72,240.59 291.99,234.41 293.19,233.21 C293.66,232.74 292.06,228.15 289.60,222.93 C284.16,211.40 282.00,201.37 282.00,187.64 L 282.00 177.20 L 274.75 175.62 C273.89,175.43 273.09,175.26 272.33,175.09 C264.89,173.45 261.86,172.79 259.53,173.77 C257.69,174.55 256.29,176.36 253.51,179.53 C247.47,186.41 234.18,197.56 223.50,204.71 C215.57,210.02 207.38,214.06 197.00,217.77 C192.32,219.45 183.94,222.47 178.36,224.48 C159.75,231.20 159.50,236.37 177.56,241.04 C181.93,242.16 190.45,243.47 196.50,243.94 ZM 512.77 910.44 C517.18,914.30 519.55,915.73 520.77,915.27 C523.48,914.25 547.41,901.39 559.00,894.72 C572.82,886.77 583.97,879.24 584.14,877.72 C584.21,877.05 584.33,867.05 584.40,855.50 C584.47,843.95 585.17,828.32 585.94,820.76 C586.72,813.21 587.16,806.85 586.93,806.63 C586.69,806.42 582.85,806.04 578.39,805.80 L 570.27 805.35 L 569.59 818.92 C568.45,841.75 566.28,859.49 563.97,864.84 C561.12,871.46 557.41,873.34 542.00,875.92 C530.22,877.89 467.64,886.00 464.20,886.00 C460.72,886.00 464.99,888.01 477.00,892.03 C492.90,897.36 504.81,903.49 512.77,910.44 ZM 503.65 860.54 C504.22,862.03 505.30,862.16 511.90,861.59 C524.39,860.52 545.35,857.79 547.62,856.94 C549.53,856.23 549.86,854.86 551.05,842.82 C551.78,835.50 552.40,823.20 552.43,815.50 L 552.50 801.50 L 535.00 800.89 C525.38,800.55 513.34,799.93 508.25,799.51 L 499.00 798.74 L 498.98 803.12 C498.97,805.53 498.31,812.00 497.51,817.50 C495.13,833.95 495.45,838.68 499.50,847.14 C501.42,851.16 503.00,855.43 503.00,856.64 C503.00,857.85 503.29,859.60 503.65,860.54 ZM 409.96 882.87 C412.83,885.14 415.59,887.00 416.10,887.00 C416.61,887.00 424.11,883.46 432.76,879.14 C449.40,870.84 456.06,868.32 470.29,864.97 C475.13,863.84 479.74,862.65 480.54,862.35 C482.52,861.59 482.37,858.37 480.01,850.84 C477.44,842.63 477.46,835.34 480.14,814.25 C481.35,804.76 482.12,796.79 481.86,796.52 C481.60,796.26 478.21,795.76 474.34,795.40 L 467.30 794.74 L 466.11 805.62 C462.71,836.67 459.39,849.13 453.79,851.78 C452.30,852.49 444.20,853.75 435.79,854.57 C414.41,856.68 370.08,861.97 366.63,862.84 C364.17,863.46 365.49,864.09 376.13,867.36 C391.31,872.04 403.07,877.43 409.96,882.87 ZM 361.77 189.45 C356.86,191.50 352.36,191.35 347.59,188.97 C342.46,186.41 340.18,184.27 337.98,179.95 C335.38,174.86 334.68,169.91 335.92,165.31 C342.17,142.10 374.54,145.59 374.31,169.44 C374.22,179.04 369.80,186.10 361.77,189.45 ZM 251.39 212.20 C248.05,214.16 240.85,215.53 239.75,214.42 C238.22,212.88 239.07,208.29 241.25,206.28 C244.80,203.01 250.30,200.01 252.73,200.00 C254.01,200.00 255.66,201.08 256.63,202.56 C258.22,204.98 258.20,205.26 256.30,207.81 C255.19,209.29 252.99,211.26 251.39,212.20 ZM 348.20 165.80 C350.00,167.60 350.95,167.27 352.02,164.43 L 352.09 164.27 C352.73,162.59 353.04,161.77 352.76,161.37 C352.49,161.00 351.70,161.00 350.16,161.00 L 350.00 161.00 C347.78,161.00 347.00,161.47 347.00,162.80 C347.00,163.79 347.54,165.14 348.20,165.80 Z" fill="#1c1917"/>
<path d="M 196.50 243.94 C190.45,243.47 181.93,242.16 177.56,241.04 C159.50,236.37 159.75,231.20 178.36,224.48 C183.94,222.47 192.32,219.45 197.00,217.77 C207.38,214.06 215.57,210.02 223.50,204.71 C234.18,197.56 247.47,186.41 253.51,179.53 C256.29,176.36 257.69,174.55 259.53,173.77 C261.86,172.79 264.89,173.45 272.33,175.09 C273.09,175.26 273.89,175.43 274.75,175.62 L 282.00 177.20 L 282.00 187.64 C282.00,201.37 284.16,211.40 289.60,222.93 C292.06,228.15 293.66,232.74 293.19,233.21 C291.99,234.41 259.72,240.59 245.38,242.38 C229.50,244.36 209.94,244.98 196.50,243.94 ZM 512.77 910.44 C504.81,903.49 492.90,897.36 477.00,892.03 C464.99,888.01 460.72,886.00 464.20,886.00 C467.64,886.00 530.22,877.89 542.00,875.92 C557.41,873.34 561.12,871.46 563.97,864.84 C566.28,859.49 568.45,841.75 569.59,818.92 L 570.27 805.35 L 578.39 805.80 C582.85,806.04 586.69,806.42 586.93,806.63 C587.16,806.85 586.72,813.21 585.94,820.76 C585.17,828.32 584.47,843.95 584.40,855.50 C584.33,867.05 584.21,877.05 584.14,877.72 C583.97,879.24 572.82,886.77 559.00,894.72 C547.41,901.39 523.48,914.25 520.77,915.27 C519.55,915.73 517.18,914.30 512.77,910.44 ZM 409.96 882.87 C403.07,877.43 391.31,872.04 376.13,867.36 C365.49,864.09 364.17,863.46 366.63,862.84 C370.08,861.97 414.41,856.68 435.79,854.57 C444.20,853.75 452.30,852.49 453.79,851.78 C459.39,849.13 462.71,836.67 466.11,805.62 L 467.30 794.74 L 474.34 795.40 C478.21,795.76 481.60,796.26 481.86,796.52 C482.12,796.79 481.35,804.76 480.14,814.25 C477.46,835.34 477.44,842.63 480.01,850.84 C482.37,858.37 482.52,861.59 480.54,862.35 C479.74,862.65 475.13,863.84 470.29,864.97 C456.06,868.32 449.40,870.84 432.76,879.14 C424.11,883.46 416.61,887.00 416.10,887.00 C415.59,887.00 412.83,885.14 409.96,882.87 ZM 251.39 212.20 C252.99,211.26 255.19,209.29 256.30,207.81 C258.20,205.26 258.22,204.98 256.63,202.56 C255.66,201.08 254.01,200.00 252.73,200.00 C250.30,200.01 244.80,203.01 241.25,206.28 C239.07,208.29 238.22,212.88 239.75,214.42 C240.85,215.53 248.05,214.16 251.39,212.20 Z" fill="#f97316"/>
</g>
</svg>